        <svg width="70" height="66" viewBox="0 0 70 66" fill="none" xmlns="http://www.w3.org/2000/svg">
        <path d="M20.6314 19.6826C17.4239 22.8986 12.2219 22.8986 9.01093 19.6826C7.40896 18.0728 4.80794 18.0728 3.20246 19.6826C1.60048 21.2923 1.60048 23.9003 3.20246 25.5065C9.62088 31.9419 20.025 31.9419 26.4399 25.5065L20.6314 19.6826Z" stroke="#4D978B" stroke-width="4" stroke-miterlimit="10"/>
        <path d="M30.8915 47.3083C30.8915 49.5824 29.0512 51.4276 26.7832 51.4276C24.5151 51.4276 22.6748 49.5824 22.6748 47.3083C22.6748 45.0343 24.5151 43.1891 26.7832 43.1891C29.0512 43.1891 30.8915 45.0343 30.8915 47.3083Z" stroke="#4D978B" stroke-width="4" stroke-miterlimit="10"/>
        <path d="M47.3251 47.3083C47.3251 49.5824 45.4848 51.4276 43.2167 51.4276C40.9487 51.4276 39.1084 49.5824 39.1084 47.3083C39.1084 45.0343 40.9487 43.1891 43.2167 43.1891C45.4848 43.1891 47.3251 45.0343 47.3251 47.3083Z" stroke="#4D978B" stroke-width="4" stroke-miterlimit="10"/>
        <path d="M63.7548 47.3083C63.7548 49.5824 61.9144 51.4276 59.6464 51.4276C57.3784 51.4276 55.5381 49.5824 55.5381 47.3083C55.5381 45.0343 57.3784 43.1891 59.6464 43.1891C61.9144 43.1891 63.7548 45.0343 63.7548 47.3083Z" stroke="#4D978B" stroke-width="4" stroke-miterlimit="10"/>
        <path d="M34.9998 63.7819H18.4297C18.4297 59.2514 22.2646 55.5434 26.7831 55.5434C31.3016 55.5434 34.9998 59.2514 34.9998 63.7819Z" stroke="#4D978B" stroke-width="4" stroke-miterlimit="10"/>
        <path d="M51.4334 63.7819H35C35 59.2514 38.6982 55.5434 43.2167 55.5434C47.7352 55.5434 51.4334 59.2514 51.4334 63.7819Z" stroke="#4D978B" stroke-width="4" stroke-miterlimit="10"/>
        <path d="M68.0002 63.7819H51.4336C51.4336 59.2514 55.1283 55.5434 59.6468 55.5434C64.1653 55.5434 68.0002 59.2514 68.0002 63.7819Z" stroke="#4D978B" stroke-width="4" stroke-miterlimit="10"/>
        <path d="M10.2167 10.2386C10.2167 12.5126 8.37635 14.3578 6.10835 14.3578C3.84034 14.3578 2 12.5126 2 10.2386C2 7.96452 3.84034 6.11929 6.10835 6.11929C8.37635 6.11929 10.2167 7.96452 10.2167 10.2386Z" stroke="#4D978B" stroke-width="4" stroke-miterlimit="10"/>
        <path d="M10.2167 29.675V63.7819H2V22.5928" stroke="#4D978B" stroke-width="4" stroke-miterlimit="10"/>
        <path d="M18.4297 21.2608V2.00006H67.9998V34.9506H18.4297V29.9316" stroke="#4D978B" stroke-width="4" stroke-miterlimit="10"/>
        <path d="M23.0396 22.0937L34.8633 10.2385" stroke="#4D978B" stroke-width="4" stroke-miterlimit="10"/>
        <path d="M57.5924 12.2982L47.325 22.5963L43.2167 18.4771L35 26.7156" stroke="#CA5443" stroke-width="4" stroke-miterlimit="10"/>
        <path d="M49.3794 12.2982H57.5926V20.5367" stroke="#CA5443" stroke-width="4" stroke-miterlimit="10"/>
        <path d="M2 39.0699H10.2167" stroke="#4D978B" stroke-width="4" stroke-miterlimit="10"/>
        </svg>