<svg width="32" height="32" viewBox="0 0 32 32" fill="none" xmlns="http://www.w3.org/2000/svg">
<rect x="1" y="1" width="30" height="30" rx="15" stroke="white" stroke-width="2"/>
<path d="M22.6573 21.1575C21.8893 21.1391 21.1395 21.1391 20.3715 21.1575C20.2069 21.1575 20.1703 21.1209 20.1703 20.9563C20.1703 19.6031 20.1703 18.2317 20.1703 16.8785C20.1703 16.5676 20.1521 16.2567 20.0607 15.9641C19.7863 15.0133 18.6891 14.6658 17.9029 15.3058C17.4823 15.635 17.3177 16.0921 17.3177 16.6407C17.3177 17.9207 17.3177 19.2008 17.3177 20.4809C17.3177 20.6454 17.2994 20.81 17.3177 20.9929C17.336 21.1391 17.2629 21.1757 17.1348 21.1575C16.3485 21.1575 15.5805 21.1575 14.7942 21.1575C14.6479 21.1575 14.6113 21.1209 14.6113 20.9746C14.6296 19.8225 14.6296 18.6705 14.6296 17.5002C14.6296 16.0739 14.6296 14.6475 14.6113 13.2395C14.6113 13.0749 14.6479 13.0383 14.7942 13.0383C15.5805 13.0383 16.3485 13.0383 17.1348 13.0383C17.2811 13.0383 17.3177 13.0749 17.3177 13.2212C17.3177 13.5138 17.3177 13.8063 17.3177 14.1538C17.3725 14.0989 17.3909 14.0807 17.4091 14.0623C18.1223 13.0201 19.1281 12.7275 20.3167 12.9103C21.6881 13.1297 22.5659 14.0807 22.7853 15.5435C22.8401 15.891 22.8585 16.2384 22.8585 16.5859C22.8585 18.0488 22.8585 19.4934 22.8585 20.9563C22.8585 21.1026 22.8219 21.1575 22.6573 21.1575Z" fill="white"/>
<path d="M13.1481 17.0976C13.1481 18.3777 13.1481 19.6577 13.1481 20.9378C13.1481 21.1024 13.1115 21.1572 12.9469 21.1572C12.1789 21.1389 11.4109 21.1572 10.6428 21.1572C10.4966 21.1572 10.46 21.1206 10.46 20.9744C10.46 18.396 10.46 15.7993 10.46 13.221C10.46 13.093 10.4966 13.0381 10.6428 13.0381C11.4292 13.0381 12.2155 13.0381 13.0018 13.0381C13.1664 13.0381 13.1846 13.093 13.1846 13.2392C13.1481 14.5193 13.1481 15.7993 13.1481 17.0976Z" fill="white"/>
<path d="M13.2755 10.9176C13.0927 11.6491 12.3429 12.0697 11.4835 11.9233C10.5692 11.7771 10.0571 10.881 10.3863 10.0033C10.6057 9.45466 11.1361 9.12552 11.8127 9.14379C12.8367 9.12552 13.5133 9.94839 13.2755 10.9176Z" fill="white"/>
</svg>
