<svg width="147" height="41" viewBox="0 0 147 41" fill="none" xmlns="http://www.w3.org/2000/svg">
<g clip-path="url(#clip0_976_1274)">
<path d="M60.0021 14.1865H63.4026V16.9387H65.9871V19.7725H63.4026V24.8028C63.4026 25.3278 63.5343 25.6922 63.7953 25.8961C64.0563 26.0999 64.4567 26.2019 64.9938 26.2019C65.2067 26.2019 65.4119 26.1968 65.607 26.184C65.8021 26.1738 65.9516 26.1637 66.053 26.156V28.6992C65.9212 28.7222 65.6729 28.7502 65.308 28.7884C64.9432 28.8267 64.5555 28.8445 64.1425 28.8445C63.1416 28.8445 62.3307 28.7324 61.7074 28.5056C61.0866 28.2788 60.633 27.9144 60.3493 27.4123C60.0655 26.9078 59.9236 26.2452 59.9236 25.4246V19.7725H58.1245V16.9387H60.0021V14.1865Z" fill="#272323"/>
<path d="M77.729 28.6665H74.3159V26.6788H74.1385C74.0346 26.9897 73.8446 27.3108 73.5633 27.6446C73.2846 27.9784 72.907 28.2613 72.4383 28.4932C71.967 28.7251 71.3867 28.8423 70.6949 28.8423C69.9145 28.8423 69.2329 28.697 68.6476 28.404C68.0623 28.1109 67.6087 27.6599 67.2844 27.0483C66.96 26.4367 66.7979 25.6594 66.7979 24.7115V16.9365H70.3199V23.8017C70.3199 24.3725 70.4111 24.8108 70.5961 25.1166C70.7811 25.425 71.0142 25.634 71.298 25.7486C71.5818 25.8633 71.8707 25.9219 72.1646 25.9219C72.532 25.9219 72.8715 25.8353 73.1807 25.662C73.4898 25.4887 73.7407 25.2339 73.9307 24.9C74.1207 24.5662 74.217 24.1661 74.217 23.6998V16.9365H77.729V28.6639V28.6665Z" fill="#272323"/>
<path d="M84.3527 16.9698C84.8012 17.1303 85.1812 17.3571 85.4954 17.6527C85.8071 17.9483 86.0377 18.2974 86.1847 18.6975H86.3494V12.7676H89.8816V28.7252H86.3823V26.8267H86.2176C86.1213 27.1299 85.9718 27.4052 85.764 27.6549C85.5588 27.9021 85.3054 28.1161 85.0089 28.2945C84.7099 28.4729 84.378 28.6105 84.0106 28.7048C83.6432 28.8016 83.2479 28.8501 82.8298 28.8501C81.9531 28.8501 81.1929 28.6411 80.5443 28.2232C79.8956 27.8052 79.3939 27.1962 79.0366 26.396C78.6793 25.5958 78.502 24.63 78.502 23.4986V22.0766C78.502 20.9452 78.6819 19.9819 79.0417 19.1894C79.4015 18.3968 79.9083 17.7903 80.5595 17.3673C81.2107 16.9443 81.9734 16.7353 82.8501 16.7353C83.4025 16.7353 83.9016 16.8143 84.3527 16.9749V16.9698ZM83.1212 19.8061C82.807 20.0201 82.5663 20.3387 82.3914 20.7617C82.2191 21.1847 82.133 21.702 82.133 22.3162V23.2718C82.133 23.8859 82.2191 24.4058 82.3914 24.8314C82.5637 25.2569 82.8095 25.578 83.1263 25.7921C83.443 26.0061 83.8104 26.1132 84.231 26.1132C84.6517 26.1132 85.0191 26.0061 85.3358 25.7921C85.6525 25.578 85.9009 25.2646 86.0808 24.8543C86.2607 24.444 86.3519 23.942 86.3519 23.3508V22.1633C86.3519 21.5924 86.2607 21.1082 86.0757 20.7082C85.8907 20.3081 85.6373 20.0048 85.313 19.7984C84.9887 19.592 84.6212 19.4875 84.2082 19.4875C83.7952 19.4875 83.4329 19.5945 83.1212 19.8086V19.8061Z" fill="#272323"/>
<path d="M101.185 20.5502C100.803 21.7581 100.448 22.8539 100.126 23.8376C99.8017 24.8212 99.5255 25.6698 99.2924 26.3808C99.0618 27.0918 98.8793 27.632 98.7451 28.0015L98.4689 28.7354C97.9317 30.1574 97.2349 31.1767 96.3809 31.7934C95.527 32.4127 94.3944 32.721 92.9805 32.721C92.6638 32.721 92.3268 32.7083 91.9695 32.6828C91.6122 32.6573 91.3411 32.6216 91.1586 32.5783V30.1345C91.2549 30.1574 91.4019 30.1752 91.5995 30.1905C91.7972 30.2058 91.9872 30.2135 92.1621 30.2135C92.8234 30.2135 93.3226 30.0962 93.652 29.8592C93.9839 29.6223 94.1816 29.2476 94.2474 28.738L94.2905 28.5163L90.3706 16.9443H94.2449L96.3531 25.6851H96.4975L98.6716 16.9443H102.404C101.971 18.3 101.56 19.3474 101.178 20.5553L101.185 20.5502Z" fill="#272323"/>
<path d="M116.135 27.8839C115.41 27.2443 115.048 26.3574 115.048 25.2234C115.048 24.0894 115.41 23.2791 116.135 22.6292C116.86 21.982 117.906 21.6583 119.277 21.6583H122.026V20.6696C122.026 20.1879 121.879 19.8261 121.585 19.5814C121.291 19.3368 120.893 19.2145 120.392 19.2145C120.06 19.2145 119.781 19.2654 119.553 19.3648C119.325 19.4642 119.145 19.6044 119.018 19.7802C118.889 19.9586 118.811 20.1625 118.78 20.3918H115.479C115.501 19.9178 115.603 19.4566 115.788 19.0106C115.973 18.5621 116.254 18.1595 116.639 17.8002C117.022 17.4408 117.526 17.1554 118.152 16.9439C118.778 16.7324 119.543 16.6279 120.448 16.6279C121.352 16.6279 122.231 16.7604 122.992 17.028C123.754 17.2956 124.36 17.7314 124.813 18.3379C125.267 18.9444 125.492 19.7598 125.492 20.7817V28.6662H122.191V27.2111H122.026C121.894 27.4787 121.697 27.7361 121.436 27.9884C121.175 28.2406 120.84 28.4445 120.43 28.6051C120.022 28.7631 119.525 28.8446 118.945 28.8446C117.797 28.8446 116.86 28.5235 116.135 27.8839ZM121.081 26.1638C121.365 26.0262 121.593 25.8376 121.765 25.598C121.937 25.3585 122.024 25.0782 122.024 24.7596V23.6052H120.202C119.649 23.6052 119.231 23.7301 118.942 23.9824C118.656 24.2347 118.512 24.5609 118.512 24.9584C118.512 25.4324 118.679 25.7866 119.013 26.0185C119.348 26.253 119.728 26.3676 120.156 26.3676C120.488 26.3676 120.795 26.2988 121.078 26.1612L121.081 26.1638Z" fill="#272323"/>
<path d="M126.934 18.1343C127.396 17.5838 128.001 17.1812 128.756 16.9289C129.511 16.6766 130.325 16.5518 131.201 16.5518C132.078 16.5518 132.912 16.6843 133.619 16.9518C134.326 17.2194 134.878 17.617 135.281 18.1445C135.681 18.6745 135.881 19.332 135.881 20.1143H132.813C132.79 19.9003 132.717 19.6989 132.587 19.5104C132.458 19.3218 132.276 19.1663 132.04 19.044C131.804 18.9217 131.505 18.8605 131.146 18.8605C130.639 18.8605 130.249 18.9727 129.975 19.1944C129.701 19.4161 129.567 19.704 129.567 20.0608C129.567 20.336 129.671 20.5552 129.876 20.7208C130.081 20.8865 130.345 21.0215 130.667 21.1209C130.989 21.2203 131.328 21.2993 131.688 21.3554C132.048 21.4114 132.385 21.4598 132.694 21.5057C133.416 21.6229 134.044 21.814 134.582 22.0765C135.119 22.339 135.537 22.6958 135.836 23.1494C136.135 23.6004 136.282 24.1789 136.282 24.8822C136.282 25.7028 136.077 26.4112 135.664 27.0024C135.251 27.5937 134.653 28.0498 133.87 28.3683C133.087 28.6869 132.131 28.8449 131.004 28.8449C129.876 28.8449 129.01 28.692 128.265 28.3836C127.522 28.0778 126.957 27.6523 126.57 27.112C126.182 26.5718 125.989 25.95 125.989 25.2466H129.402C129.433 25.4913 129.516 25.7104 129.656 25.9016C129.795 26.0952 129.993 26.243 130.246 26.3501C130.5 26.4571 130.806 26.5106 131.168 26.5106C131.574 26.5106 131.901 26.4571 132.152 26.3501C132.402 26.243 132.585 26.0952 132.704 25.9067C132.823 25.7181 132.881 25.5117 132.881 25.29C132.881 24.9485 132.742 24.6962 132.461 24.528C132.182 24.3624 131.82 24.235 131.379 24.1509C130.938 24.0668 130.469 23.975 129.978 23.8782C129.293 23.7457 128.668 23.5495 128.1 23.2895C127.532 23.0296 127.081 22.6652 126.747 22.1912C126.412 21.7172 126.245 21.0954 126.245 20.3258C126.245 19.4161 126.476 18.6847 126.934 18.1317V18.1343Z" fill="#272323"/>
<path d="M137.655 18.1343C138.116 17.5838 138.722 17.1812 139.477 16.9289C140.232 16.6766 141.045 16.5518 141.922 16.5518C142.799 16.5518 143.632 16.6843 144.339 16.9518C145.046 17.2194 145.599 17.617 146.002 18.1445C146.402 18.6745 146.602 19.332 146.602 20.1143H143.534C143.511 19.9003 143.437 19.6989 143.308 19.5104C143.179 19.3218 142.996 19.1663 142.761 19.044C142.525 18.9217 142.226 18.8605 141.866 18.8605C141.36 18.8605 140.969 18.9727 140.696 19.1944C140.422 19.4161 140.288 19.704 140.288 20.0608C140.288 20.336 140.392 20.5552 140.597 20.7208C140.802 20.8865 141.066 21.0215 141.387 21.1209C141.709 21.2203 142.049 21.2993 142.409 21.3554C142.768 21.4114 143.105 21.4598 143.415 21.5057C144.137 21.6229 144.765 21.814 145.302 22.0765C145.839 22.339 146.258 22.6958 146.557 23.1494C146.856 23.6004 147.003 24.1789 147.003 24.8822C147.003 25.7028 146.797 26.4112 146.384 27.0024C145.971 27.5937 145.373 28.0498 144.59 28.3683C143.807 28.6869 142.852 28.8449 141.724 28.8449C140.597 28.8449 139.73 28.692 138.985 28.3836C138.243 28.0778 137.678 27.6523 137.29 27.112C136.903 26.5718 136.71 25.95 136.71 25.2466H140.123C140.153 25.4913 140.237 25.7104 140.376 25.9016C140.516 26.0952 140.713 26.243 140.967 26.3501C141.22 26.4571 141.527 26.5106 141.889 26.5106C142.295 26.5106 142.621 26.4571 142.872 26.3501C143.123 26.243 143.306 26.0952 143.425 25.9067C143.544 25.7181 143.602 25.5117 143.602 25.29C143.602 24.9485 143.463 24.6962 143.181 24.528C142.903 24.3624 142.54 24.235 142.099 24.1509C141.659 24.0668 141.19 23.975 140.698 23.8782C140.014 23.7457 139.388 23.5495 138.821 23.2895C138.253 23.0296 137.802 22.6652 137.468 22.1912C137.133 21.7172 136.966 21.0954 136.966 20.3258C136.966 19.4161 137.196 18.6847 137.655 18.1317V18.1343Z" fill="#272323"/>
<path d="M56.4445 20.3054C55.8212 19.9716 55.1244 19.732 54.3516 19.5842L52.1648 19.1281C51.5314 19.0032 51.0373 18.8146 50.68 18.5624C50.3227 18.3101 50.1453 17.9813 50.1453 17.5736C50.1453 17.0843 50.3379 16.6792 50.7256 16.3581C51.1133 16.037 51.6707 15.8739 52.3979 15.8739C52.9047 15.8739 53.3355 15.9554 53.6851 16.1185C54.0348 16.2816 54.3059 16.4931 54.5011 16.7505C54.5467 16.8117 54.5897 16.8754 54.6277 16.9391H58.1397C58.0358 16.3988 57.8255 15.8841 57.5088 15.3948C57.0679 14.7144 56.4217 14.164 55.5703 13.746C54.719 13.3281 53.6649 13.1191 52.4081 13.1191C51.245 13.1191 50.2239 13.3103 49.3446 13.69C48.4654 14.0722 47.7762 14.615 47.2795 15.3234C46.7829 16.0293 46.5346 16.8677 46.5346 17.8386C46.5346 18.6745 46.7018 19.3829 47.0363 19.9639C47.3707 20.545 47.8395 21.0139 48.4375 21.3681C49.038 21.7223 49.7374 21.9822 50.5406 22.1453L52.6716 22.6117C53.4064 22.7671 53.9639 22.971 54.3389 23.2232C54.7139 23.4755 54.9014 23.8374 54.9014 24.3114C54.9014 24.6452 54.8127 24.9434 54.6354 25.2058C54.458 25.4683 54.1894 25.6773 53.8245 25.8276C53.4596 25.9805 52.9934 26.0544 52.4284 26.0544C52.0153 26.0544 51.6479 26.006 51.3236 25.9092C50.9992 25.8123 50.7205 25.6824 50.4849 25.5142C50.2492 25.3486 50.0642 25.1523 49.9274 24.9306C49.7906 24.7089 49.7095 24.4745 49.6791 24.2298H46.2229C46.2457 24.821 46.3749 25.3944 46.6106 25.9449C46.8462 26.4953 47.206 26.9897 47.6925 27.428C48.179 27.8637 48.7998 28.2103 49.5575 28.4601C50.3151 28.7123 51.2248 28.8372 52.2839 28.8372C53.6395 28.8372 54.7747 28.6308 55.6894 28.2154C56.6067 27.8 57.2985 27.2241 57.7698 26.4877C58.2411 25.7512 58.4767 24.9026 58.4767 23.9393C58.4767 22.9761 58.2917 22.26 57.9243 21.6739C57.5569 21.0903 57.0603 20.6291 56.4395 20.2978L56.4445 20.3054Z" fill="#272323"/>
<path d="M108.556 28.6899C108.115 28.5345 107.735 28.3102 107.418 28.0171C107.102 27.7241 106.858 27.3673 106.689 26.9443H106.511V32.7188H102.989V16.9294H106.478V18.805H106.656C106.772 18.4941 106.94 18.2137 107.152 17.9615C107.365 17.7092 107.619 17.4977 107.91 17.3295C108.201 17.1587 108.523 17.0288 108.881 16.9345C109.238 16.8427 109.623 16.7969 110.033 16.7969C110.946 16.7969 111.724 17.0109 112.362 17.4416C113.003 17.8697 113.495 18.4864 113.837 19.2891C114.179 20.0919 114.351 21.0602 114.351 22.1917V23.5143C114.351 24.6457 114.179 25.6166 113.832 26.4244C113.485 27.2323 112.988 27.849 112.342 28.2796C111.693 28.7077 110.918 28.9244 110.013 28.9244C109.484 28.9244 108.997 28.8479 108.556 28.6899ZM109.77 25.8485C110.079 25.6192 110.315 25.2904 110.477 24.8598C110.639 24.4317 110.72 23.9118 110.72 23.3053V22.4287C110.72 21.8145 110.639 21.2947 110.477 20.8691C110.315 20.4435 110.076 20.1173 109.765 19.8931C109.451 19.6663 109.071 19.5542 108.622 19.5542C108.174 19.5542 107.811 19.6663 107.497 19.888C107.18 20.1097 106.937 20.4257 106.767 20.8385C106.597 21.2488 106.514 21.7432 106.514 22.3216V23.5092C106.514 24.0494 106.603 24.5208 106.78 24.926C106.957 25.3287 107.203 25.6421 107.52 25.8638C107.837 26.0855 108.212 26.1976 108.645 26.1976C109.078 26.1976 109.461 26.083 109.77 25.8536V25.8485Z" fill="#272323"/>
<path d="M36.7056 17.3135L8.60747 17.3135C3.85646 17.3135 -9.15527e-05 13.4349 -9.15527e-05 8.65682C-9.15527e-05 3.87871 3.85646 0.000156403 8.60747 0.000156403L36.7056 0.000156403V17.3135Z" fill="#CA5443"/>
<path d="M0 23.6865H28.0981C32.8491 23.6865 36.7057 27.5651 36.7057 32.3432C36.7057 37.1213 32.8491 40.9998 28.0981 40.9998H0V23.6865Z" fill="#CA5443"/>
</g>
<defs>
<clipPath id="clip0_976_1274">
<rect width="147" height="41" fill="white"/>
</clipPath>
</defs>
</svg>
