<svg width="32" height="32" viewBox="0 0 32 32" fill="none" xmlns="http://www.w3.org/2000/svg">
<path fill-rule="evenodd" clip-rule="evenodd" d="M19.5555 8C20.7343 8 21.8647 8.46827 22.6983 9.30173C23.5317 10.1353 24 11.2657 24 12.4445V19.5555C24 20.7343 23.5317 21.8647 22.6983 22.6983C21.8647 23.5317 20.7343 24 19.5555 24H12.4445C11.2657 24 10.1353 23.5317 9.30173 22.6983C8.46827 21.8647 8 20.7343 8 19.5555V12.4445C8 11.2657 8.46827 10.1353 9.30173 9.30173C10.1353 8.46827 11.2657 8 12.4445 8H19.5555ZM19.5555 9.7778H12.4445C11.7372 9.7778 11.0589 10.0587 10.5588 10.5588C10.0587 11.0589 9.7778 11.7372 9.7778 12.4445V19.5555C9.7778 20.2628 10.0587 20.9411 10.5588 21.4412C11.0589 21.9413 11.7372 22.2222 12.4445 22.2222H19.5555C20.2628 22.2222 20.9411 21.9413 21.4412 21.4412C21.9413 20.9411 22.2222 20.2628 22.2222 19.5555V12.4445C22.2222 11.7372 21.9413 11.0589 21.4412 10.5588C20.9411 10.0587 20.2628 9.7778 19.5555 9.7778ZM16 12.4445C16.943 12.4445 17.8473 12.8191 18.5141 13.4859C19.1809 14.1527 19.5555 15.057 19.5555 16C19.5555 16.943 19.1809 17.8473 18.5141 18.5141C17.8473 19.1809 16.943 19.5555 16 19.5555C15.057 19.5555 14.1527 19.1809 13.4859 18.5141C12.8191 17.8473 12.4445 16.943 12.4445 16C12.4445 15.057 12.8191 14.1527 13.4859 13.4859C14.1527 12.8191 15.057 12.4445 16 12.4445ZM16 14.2222C15.5285 14.2222 15.0763 14.4095 14.7429 14.7429C14.4095 15.0763 14.2222 15.5285 14.2222 16C14.2222 16.4715 14.4095 16.9237 14.7429 17.2571C15.0763 17.5905 15.5285 17.7778 16 17.7778C16.4715 17.7778 16.9237 17.5905 17.2571 17.2571C17.5905 16.9237 17.7778 16.4715 17.7778 16C17.7778 15.5285 17.5905 15.0763 17.2571 14.7429C16.9237 14.4095 16.4715 14.2222 16 14.2222ZM20 11.1111C20.2357 11.1111 20.4619 11.2047 20.6285 11.3715C20.7953 11.5381 20.8889 11.7643 20.8889 12C20.8889 12.2357 20.7953 12.4619 20.6285 12.6285C20.4619 12.7953 20.2357 12.8889 20 12.8889C19.7643 12.8889 19.5381 12.7953 19.3715 12.6285C19.2047 12.4619 19.1111 12.2357 19.1111 12C19.1111 11.7643 19.2047 11.5381 19.3715 11.3715C19.5381 11.2047 19.7643 11.1111 20 11.1111Z" fill="white"/>
</svg>
