<svg width="24" height="25" viewBox="0 0 24 25" fill="none" xmlns="http://www.w3.org/2000/svg">
<path fill-rule="evenodd" clip-rule="evenodd" d="M12.2181 0.5C5.7108 0.5 0.435743 5.73411 0.435743 12.1912C0.435743 14.3998 1.05349 16.4654 2.12637 18.2276L0 24.5L6.52319 22.4275C8.21108 23.3538 10.1523 23.8817 12.2181 23.8817C18.7249 23.8817 24 18.6478 24 12.1912C24 5.73411 18.7249 0.5 12.2181 0.5ZM12.2181 22.0199C10.2059 22.0199 8.33242 21.421 6.76819 20.3943L2.96152 21.604L4.1987 17.9537C3.01292 16.3333 2.31227 14.3422 2.31227 12.1909C2.31227 6.77111 6.75597 2.36183 12.2181 2.36183C17.6799 2.36183 22.1237 6.77111 22.1237 12.1909C22.1237 17.6106 17.6799 22.0199 12.2181 22.0199Z" fill="white"/>
<path fill-rule="evenodd" clip-rule="evenodd" d="M9.45469 7.35554C9.26384 6.89913 9.11764 6.88366 8.82283 6.86976C8.72171 6.86495 8.61207 6.86035 8.4921 6.86035C8.11228 6.86035 7.71846 6.97135 7.48116 7.21225C7.19235 7.50542 6.47021 8.19208 6.47021 9.60199C6.47021 11.0121 7.50517 12.3747 7.64937 12.5659C7.79398 12.757 9.66788 15.6929 12.5834 16.8916C14.859 17.8269 15.5347 17.7436 16.0538 17.6309C16.8092 17.4673 17.7578 16.9152 17.9985 16.2463C18.2392 15.577 18.2392 15.0033 18.167 14.8842C18.0948 14.7645 17.9022 14.6931 17.6134 14.5494C17.3246 14.4061 15.9045 13.7129 15.6398 13.6175C15.375 13.5219 15.1302 13.5511 14.9266 13.8306C14.6456 14.2165 14.3753 14.6132 14.1515 14.8483C13.9758 15.0329 13.6931 15.0586 13.45 14.9561C13.1303 14.8209 12.2305 14.5098 11.1272 13.5337C10.2688 12.7743 9.68905 11.8362 9.52052 11.5492C9.352 11.2626 9.50567 11.0915 9.63554 10.9356C9.78363 10.7576 9.92024 10.6298 10.0646 10.4627C10.2091 10.2952 10.2897 10.2061 10.386 10.0146C10.4823 9.82356 10.4175 9.62634 10.3452 9.48284C10.2728 9.33924 9.69463 7.92954 9.45469 7.35554Z" fill="white"/>
</svg>
